{"title":"Singham Returns 2014 Hindi BRRip 720p X264 AC3 5.1...Hon3y","uid":11179507,"size":3229292525,"categoryP":"video","categoryS":"hd___movies","magnet":"?xt=urn:btih:5bce7f4c5632cc80c8936910eddc7ce8daaf5305&amp;dn=Singham+Returns+2014+Hindi+BRRip+720p+X264+AC3+5.1...Hon3y&amp;tr=udp%3A%2F%2Ftracker.openbittorrent.com%3A80&amp;tr=udp%3A%2F%2Fopen.demonii.com%3A1337&amp;tr=udp%3A%2F%2Ftracker.coppersurfer.tk%3A6969&amp;tr=udp%3A%2F%2Fexodus.desync.com%3A6969","seeders":3,"leechers":0,"uploader":"honey8ee","files":4,"time":1412845667,"description":"Encoded By Bh@iyo888@Hon3yHD\n\nSource                                   : Thanks Telly\nFormat                                   : Matroska\nFormat version                           : Version 4 / Version 2\nFile size                                : 3.00 GiB\nDuration                                 : 2h 19mn\nOverall bit rate                         : 3 083 Kbps\nMovie name                               : Singham Returns 2014 Hindi BRRip 720p X264 AC3 5.1...Hon3y\n\n\nVideo\nID                                       : 2\nFormat                                   : AVC\nFormat/Info                              : Advanced Video Codec\nFormat profile                           : &lt;a class=&quot;__cf_email__&quot; href=&quot;/cdn-cgi/l/email-protection&quot; data-cfemail=&quot;8fc7e6e8e7cfc3bba1be&quot;&gt;[email&amp;#160;protected]&lt;/a&gt;&lt;script cf-hash='f9e31' type=&quot;text/javascript&quot;&gt;\n/* &lt;![CDATA[ */!function(){try{var t=&quot;currentScript&quot;in document?document.currentScript:function(){for(var t=document.getElementsByTagName(&quot;script&quot;),e=t.length;e--;)if(t[e].getAttribute(&quot;cf-hash&quot;))return t[e]}();if(t&amp;&amp;t.previousSibling){var e,r,n,i,c=t.previousSibling,a=c.getAttribute(&quot;data-cfemail&quot;);if(a){for(e=&quot;&quot;,r=parseInt(a.substr(0,2),16),n=2;a.length-n;n+=2)i=parseInt(a.substr(n,2),16)^r,e+=String.fromCharCode(i);e=document.createTextNode(e),c.parentNode.replaceChild(e,c)}}}catch(u){}}();/* ]]&gt; */&lt;/script&gt;\nFormat settings, CABAC                   : Yes\nFormat settings, ReFrames                : 12 frames\nCodec ID                                 : V_MPEG4/ISO/AVC\nDuration                                 : 2h 19mn\nBit rate                                 : 2 634 Kbps\nWidth                                    : 1 280 pixels\nHeight                                   : 544 pixels\nDisplay aspect ratio                     : 2.35:1\nFrame rate mode                          : Constant\nFrame rate                               : 23.976 fps\nColor space                              : YUV\nChroma subsampling                       : 4:2:0\nBit depth                                : 8 bits\nScan type                                : Progressive\nBits/(Pixel*Frame)                       : 0.158\nStream size                              : 2.50 GiB (83%)\nTitle                                    : Bh@iyo888@Hon3yHD\nWriting library                          : x264 core\n\nAudio\nID                                       : 1\nFormat                                   : AC-3\nFormat/Info                              : Audio Coding 3\nMode extension                           : CM (complete main)\nFormat settings, Endianness              : Big\nCodec ID                                 : A_AC3\nDuration                                 : 2h 19mn\nBit rate mode                            : Constant\nBit rate                                 : 448 Kbps\nChannel(s)                               : 6 channels\nChannel positions                        : Front: L C R, Side: L R, LFE\nSampling rate                            : 48.0 KHz\nBit depth                                : 16 bits\nCompression mode                         : Lossy\nStream size                              : 446 MiB (15%)\nTitle                                    : Bh@iyo888@Hon3yHD\nLanguage                                 : Hindi\nDefault                                  : Yes\nForced                                   : No\n\nFor Screen Shots:\n &lt;a href=&quot;\nhttp://www.hon3yhd.com/index.php?page=torrent-details&amp;id=5bce7f4c5632cc80c8936910eddc7ce8daaf5305&quot; rel=&quot;nofollow&quot; target=&quot;_NEW&quot;&gt;\nhttp://www.hon3yhd.com/index.php?page=torrent-details&amp;id=5bce7f4c5632cc80c8936910eddc7ce8daaf5305&lt;/a&gt;","torrent":{"xt":"urn:btih:5bce7f4c5632cc80c8936910eddc7ce8daaf5305","amp;dn":"Singham+Returns+2014+Hindi+BRRip+720p+X264+AC3+5.1...Hon3y","amp;tr":["udp%3A%2F%2Ftracker.openbittorrent.com%3A80","udp%3A%2F%2Fopen.demonii.com%3A1337","udp%3A%2F%2Ftracker.coppersurfer.tk%3A6969","udp%3A%2F%2Fexodus.desync.com%3A6969"],"infoHash":"5bce7f4c5632cc80c8936910eddc7ce8daaf5305","infoHashBuffer":{"type":"Buffer","data":[91,206,127,76,86,50,204,128,200,147,105,16,237,220,124,232,218,175,83,5]},"announce":[],"urlList":[]}}